<mxfile host="app.diagrams.net" modified="2022-03-02T12:57:02.023Z" agent="5.0 (Windows NT 10.0) AppleWebKit/537.36 (KHTML, like Gecko) Chrome/96.0.4664.174 YaBrowser/22.1.4.840 Yowser/2.5 Safari/537.36" etag="IxBxWqM7oGaWKdgzNJs0" version="16.6.4" type="github">
  <diagram name="Page-1" id="c7558073-3199-34d8-9f00-42111426c3f3">
    <mxGraphModel dx="1182" dy="1904" grid="1" gridSize="10" guides="1" tooltips="1" connect="1" arrows="1" fold="1" page="1" pageScale="1" pageWidth="826" pageHeight="1169" background="none" math="0" shadow="0">
      <root>
        <mxCell id="0" />
        <mxCell id="1" parent="0" />
        <mxCell id="8z2hfBNwsOLem4TLqW6h-100" value="" style="edgeStyle=orthogonalEdgeStyle;rounded=0;orthogonalLoop=1;jettySize=auto;html=1;endArrow=doubleBlock;endFill=1;" edge="1" parent="1" source="8z2hfBNwsOLem4TLqW6h-96">
          <mxGeometry relative="1" as="geometry">
            <mxPoint x="260" y="105" as="targetPoint" />
          </mxGeometry>
        </mxCell>
        <mxCell id="8z2hfBNwsOLem4TLqW6h-96" value="&#xa;&#xa;Подготовиться к&#xa;обучению&#xa;&#xa;" style="rounded=0;whiteSpace=wrap;html=1;" vertex="1" parent="1">
          <mxGeometry x="60" y="80" width="120" height="50" as="geometry" />
        </mxCell>
        <mxCell id="8z2hfBNwsOLem4TLqW6h-97" value="1" style="rounded=0;whiteSpace=wrap;html=1;" vertex="1" parent="1">
          <mxGeometry x="60" y="130" width="40" height="20" as="geometry" />
        </mxCell>
        <mxCell id="8z2hfBNwsOLem4TLqW6h-98" value="" style="rounded=0;whiteSpace=wrap;html=1;" vertex="1" parent="1">
          <mxGeometry x="100" y="130" width="80" height="20" as="geometry" />
        </mxCell>
        <mxCell id="8z2hfBNwsOLem4TLqW6h-110" value="" style="edgeStyle=orthogonalEdgeStyle;rounded=0;orthogonalLoop=1;jettySize=auto;html=1;entryX=0;entryY=0.5;entryDx=0;entryDy=0;endArrow=doubleBlock;endFill=1;" edge="1" parent="1" source="8z2hfBNwsOLem4TLqW6h-102" target="8z2hfBNwsOLem4TLqW6h-107">
          <mxGeometry relative="1" as="geometry">
            <mxPoint x="460" y="105" as="targetPoint" />
            <Array as="points">
              <mxPoint x="390" y="115" />
              <mxPoint x="390" y="115" />
            </Array>
          </mxGeometry>
        </mxCell>
        <mxCell id="8z2hfBNwsOLem4TLqW6h-102" value="&#xa;&#xa;Проверить&#xa;группу обучения&#xa;&#xa;" style="rounded=0;whiteSpace=wrap;html=1;" vertex="1" parent="1">
          <mxGeometry x="260" y="80" width="120" height="50" as="geometry" />
        </mxCell>
        <mxCell id="8z2hfBNwsOLem4TLqW6h-103" value="2" style="rounded=0;whiteSpace=wrap;html=1;" vertex="1" parent="1">
          <mxGeometry x="260" y="130" width="40" height="20" as="geometry" />
        </mxCell>
        <mxCell id="8z2hfBNwsOLem4TLqW6h-104" value="" style="rounded=0;whiteSpace=wrap;html=1;" vertex="1" parent="1">
          <mxGeometry x="300" y="130" width="80" height="20" as="geometry" />
        </mxCell>
        <mxCell id="8z2hfBNwsOLem4TLqW6h-120" value="" style="edgeStyle=orthogonalEdgeStyle;rounded=0;orthogonalLoop=1;jettySize=auto;html=1;entryX=0;entryY=0.5;entryDx=0;entryDy=0;endArrow=doubleBlock;endFill=1;" edge="1" parent="1" source="8z2hfBNwsOLem4TLqW6h-106" target="8z2hfBNwsOLem4TLqW6h-111">
          <mxGeometry relative="1" as="geometry" />
        </mxCell>
        <mxCell id="8z2hfBNwsOLem4TLqW6h-122" value="" style="edgeStyle=orthogonalEdgeStyle;rounded=0;orthogonalLoop=1;jettySize=auto;html=1;entryX=0;entryY=0.5;entryDx=0;entryDy=0;endArrow=doubleBlock;endFill=1;" edge="1" parent="1" source="8z2hfBNwsOLem4TLqW6h-106" target="8z2hfBNwsOLem4TLqW6h-114">
          <mxGeometry relative="1" as="geometry">
            <mxPoint x="505" y="115" as="targetPoint" />
          </mxGeometry>
        </mxCell>
        <mxCell id="8z2hfBNwsOLem4TLqW6h-125" value="" style="edgeStyle=orthogonalEdgeStyle;rounded=0;orthogonalLoop=1;jettySize=auto;html=1;entryX=0;entryY=0.75;entryDx=0;entryDy=0;endArrow=doubleBlock;endFill=1;" edge="1" parent="1" source="8z2hfBNwsOLem4TLqW6h-106" target="8z2hfBNwsOLem4TLqW6h-117">
          <mxGeometry relative="1" as="geometry">
            <mxPoint x="455" y="350" as="targetPoint" />
          </mxGeometry>
        </mxCell>
        <mxCell id="8z2hfBNwsOLem4TLqW6h-106" value="O" style="rounded=0;whiteSpace=wrap;html=1;" vertex="1" parent="1">
          <mxGeometry x="440" y="100" width="30" height="30" as="geometry" />
        </mxCell>
        <mxCell id="8z2hfBNwsOLem4TLqW6h-107" value="" style="rounded=0;whiteSpace=wrap;html=1;" vertex="1" parent="1">
          <mxGeometry x="430" y="100" width="10" height="30" as="geometry" />
        </mxCell>
        <mxCell id="8z2hfBNwsOLem4TLqW6h-129" value="" style="edgeStyle=orthogonalEdgeStyle;rounded=0;orthogonalLoop=1;jettySize=auto;html=1;entryX=0;entryY=0.5;entryDx=0;entryDy=0;endArrow=doubleBlock;endFill=1;" edge="1" parent="1" source="8z2hfBNwsOLem4TLqW6h-111" target="8z2hfBNwsOLem4TLqW6h-126">
          <mxGeometry relative="1" as="geometry" />
        </mxCell>
        <mxCell id="8z2hfBNwsOLem4TLqW6h-111" value="&#xa;&#xa;Сообщить об&#xa;отсутствии&#xa;задачи в 1С&#xa;&#xa;" style="rounded=0;whiteSpace=wrap;html=1;" vertex="1" parent="1">
          <mxGeometry x="520" y="-20" width="120" height="50" as="geometry" />
        </mxCell>
        <mxCell id="8z2hfBNwsOLem4TLqW6h-112" value="2.1" style="rounded=0;whiteSpace=wrap;html=1;" vertex="1" parent="1">
          <mxGeometry x="520" y="30" width="40" height="20" as="geometry" />
        </mxCell>
        <mxCell id="8z2hfBNwsOLem4TLqW6h-113" value="" style="rounded=0;whiteSpace=wrap;html=1;" vertex="1" parent="1">
          <mxGeometry x="560" y="30" width="80" height="20" as="geometry" />
        </mxCell>
        <mxCell id="8z2hfBNwsOLem4TLqW6h-131" value="" style="edgeStyle=orthogonalEdgeStyle;rounded=0;orthogonalLoop=1;jettySize=auto;html=1;entryX=0;entryY=0.75;entryDx=0;entryDy=0;endArrow=doubleBlock;endFill=1;" edge="1" parent="1" source="8z2hfBNwsOLem4TLqW6h-114" target="8z2hfBNwsOLem4TLqW6h-132">
          <mxGeometry relative="1" as="geometry">
            <mxPoint x="680" y="115" as="targetPoint" />
            <Array as="points">
              <mxPoint x="750" y="118" />
            </Array>
          </mxGeometry>
        </mxCell>
        <mxCell id="8z2hfBNwsOLem4TLqW6h-114" value="&#xa;&#xa;Поставить&#xa;неявку в задаче в&#xa;1С&#xa;&#xa;" style="rounded=0;whiteSpace=wrap;html=1;" vertex="1" parent="1">
          <mxGeometry x="520" y="90" width="120" height="50" as="geometry" />
        </mxCell>
        <mxCell id="8z2hfBNwsOLem4TLqW6h-115" value="2.2" style="rounded=0;whiteSpace=wrap;html=1;" vertex="1" parent="1">
          <mxGeometry x="520" y="140" width="40" height="20" as="geometry" />
        </mxCell>
        <mxCell id="8z2hfBNwsOLem4TLqW6h-116" value="" style="rounded=0;whiteSpace=wrap;html=1;" vertex="1" parent="1">
          <mxGeometry x="560" y="140" width="80" height="20" as="geometry" />
        </mxCell>
        <mxCell id="8z2hfBNwsOLem4TLqW6h-137" value="" style="edgeStyle=orthogonalEdgeStyle;rounded=0;orthogonalLoop=1;jettySize=auto;html=1;endArrow=doubleBlock;endFill=1;" edge="1" parent="1" source="8z2hfBNwsOLem4TLqW6h-117" target="8z2hfBNwsOLem4TLqW6h-136">
          <mxGeometry relative="1" as="geometry">
            <Array as="points">
              <mxPoint x="660" y="250" />
              <mxPoint x="660" y="250" />
            </Array>
          </mxGeometry>
        </mxCell>
        <mxCell id="8z2hfBNwsOLem4TLqW6h-117" value="&#xa;&#xa;Рассказать&#xa;стажеру о&#xa;правилах&#xa;стажировки&#xa;&#xa;" style="rounded=0;whiteSpace=wrap;html=1;" vertex="1" parent="1">
          <mxGeometry x="520" y="200" width="120" height="60" as="geometry" />
        </mxCell>
        <mxCell id="8z2hfBNwsOLem4TLqW6h-118" value="2.3" style="rounded=0;whiteSpace=wrap;html=1;" vertex="1" parent="1">
          <mxGeometry x="520" y="260" width="40" height="20" as="geometry" />
        </mxCell>
        <mxCell id="8z2hfBNwsOLem4TLqW6h-119" value="" style="rounded=0;whiteSpace=wrap;html=1;" vertex="1" parent="1">
          <mxGeometry x="560" y="260" width="80" height="20" as="geometry" />
        </mxCell>
        <mxCell id="8z2hfBNwsOLem4TLqW6h-145" value="" style="edgeStyle=orthogonalEdgeStyle;rounded=0;orthogonalLoop=1;jettySize=auto;html=1;entryX=0;entryY=0.25;entryDx=0;entryDy=0;endArrow=doubleBlock;endFill=1;" edge="1" parent="1" source="8z2hfBNwsOLem4TLqW6h-126" target="8z2hfBNwsOLem4TLqW6h-136">
          <mxGeometry relative="1" as="geometry">
            <mxPoint x="880" y="5" as="targetPoint" />
            <Array as="points">
              <mxPoint x="830" y="20" />
              <mxPoint x="830" y="210" />
              <mxPoint x="660" y="210" />
              <mxPoint x="660" y="238" />
            </Array>
          </mxGeometry>
        </mxCell>
        <mxCell id="8z2hfBNwsOLem4TLqW6h-176" value="" style="edgeStyle=orthogonalEdgeStyle;rounded=0;orthogonalLoop=1;jettySize=auto;html=1;entryX=0;entryY=0.25;entryDx=0;entryDy=0;" edge="1" parent="1" source="8z2hfBNwsOLem4TLqW6h-126" target="8z2hfBNwsOLem4TLqW6h-173">
          <mxGeometry relative="1" as="geometry">
            <mxPoint x="1280" y="60" as="targetPoint" />
            <Array as="points">
              <mxPoint x="1270" y="5" />
              <mxPoint x="1270" y="228" />
            </Array>
          </mxGeometry>
        </mxCell>
        <mxCell id="8z2hfBNwsOLem4TLqW6h-126" value="&#xa;&#xa;Назначить&#xa;кандидата на&#xa;задачу в 1С&#xa;&#xa;" style="rounded=0;whiteSpace=wrap;html=1;" vertex="1" parent="1">
          <mxGeometry x="680" y="-20" width="120" height="50" as="geometry" />
        </mxCell>
        <mxCell id="8z2hfBNwsOLem4TLqW6h-127" value="2.1.2" style="rounded=0;whiteSpace=wrap;html=1;" vertex="1" parent="1">
          <mxGeometry x="680" y="30" width="40" height="20" as="geometry" />
        </mxCell>
        <mxCell id="8z2hfBNwsOLem4TLqW6h-128" value="" style="rounded=0;whiteSpace=wrap;html=1;" vertex="1" parent="1">
          <mxGeometry x="720" y="30" width="80" height="20" as="geometry" />
        </mxCell>
        <mxCell id="8z2hfBNwsOLem4TLqW6h-167" value="" style="edgeStyle=orthogonalEdgeStyle;rounded=0;orthogonalLoop=1;jettySize=auto;html=1;entryX=0;entryY=0.75;entryDx=0;entryDy=0;endArrow=doubleBlock;endFill=1;" edge="1" parent="1" source="8z2hfBNwsOLem4TLqW6h-132" target="8z2hfBNwsOLem4TLqW6h-163">
          <mxGeometry relative="1" as="geometry">
            <mxPoint x="1060" y="105" as="targetPoint" />
            <Array as="points">
              <mxPoint x="1060" y="118" />
            </Array>
          </mxGeometry>
        </mxCell>
        <mxCell id="8z2hfBNwsOLem4TLqW6h-132" value="&#xa;&#xa;Выяснить&#xa;причину неявки&#xa;стажера&#xa;&#xa;" style="rounded=0;whiteSpace=wrap;html=1;" vertex="1" parent="1">
          <mxGeometry x="860" y="80" width="120" height="50" as="geometry" />
        </mxCell>
        <mxCell id="8z2hfBNwsOLem4TLqW6h-133" value="6" style="rounded=0;whiteSpace=wrap;html=1;" vertex="1" parent="1">
          <mxGeometry x="860" y="130" width="40" height="20" as="geometry" />
        </mxCell>
        <mxCell id="8z2hfBNwsOLem4TLqW6h-134" value="" style="rounded=0;whiteSpace=wrap;html=1;" vertex="1" parent="1">
          <mxGeometry x="900" y="130" width="80" height="20" as="geometry" />
        </mxCell>
        <mxCell id="8z2hfBNwsOLem4TLqW6h-143" value="" style="edgeStyle=orthogonalEdgeStyle;rounded=0;orthogonalLoop=1;jettySize=auto;html=1;entryX=0;entryY=0.75;entryDx=0;entryDy=0;endArrow=doubleBlock;endFill=1;" edge="1" parent="1" source="8z2hfBNwsOLem4TLqW6h-135" target="8z2hfBNwsOLem4TLqW6h-140">
          <mxGeometry relative="1" as="geometry">
            <Array as="points">
              <mxPoint x="805" y="248" />
            </Array>
          </mxGeometry>
        </mxCell>
        <mxCell id="8z2hfBNwsOLem4TLqW6h-135" value="X" style="rounded=0;whiteSpace=wrap;html=1;" vertex="1" parent="1">
          <mxGeometry x="720" y="230" width="30" height="30" as="geometry" />
        </mxCell>
        <mxCell id="8z2hfBNwsOLem4TLqW6h-136" value="" style="rounded=0;whiteSpace=wrap;html=1;" vertex="1" parent="1">
          <mxGeometry x="710" y="230" width="10" height="30" as="geometry" />
        </mxCell>
        <mxCell id="8z2hfBNwsOLem4TLqW6h-149" value="" style="edgeStyle=orthogonalEdgeStyle;rounded=0;orthogonalLoop=1;jettySize=auto;html=1;entryX=0;entryY=0.75;entryDx=0;entryDy=0;endArrow=doubleBlock;endFill=1;" edge="1" parent="1" source="8z2hfBNwsOLem4TLqW6h-140" target="8z2hfBNwsOLem4TLqW6h-147">
          <mxGeometry relative="1" as="geometry">
            <mxPoint x="1060" y="235" as="targetPoint" />
            <Array as="points">
              <mxPoint x="990" y="253" />
            </Array>
          </mxGeometry>
        </mxCell>
        <mxCell id="8z2hfBNwsOLem4TLqW6h-140" value="&#xa;&#xa;Проверить&#xa;прогресс курса в&#xa;СДО&#xa;&#xa;" style="rounded=0;whiteSpace=wrap;html=1;" vertex="1" parent="1">
          <mxGeometry x="860" y="210" width="120" height="50" as="geometry" />
        </mxCell>
        <mxCell id="8z2hfBNwsOLem4TLqW6h-141" value="3" style="rounded=0;whiteSpace=wrap;html=1;" vertex="1" parent="1">
          <mxGeometry x="860" y="260" width="40" height="20" as="geometry" />
        </mxCell>
        <mxCell id="8z2hfBNwsOLem4TLqW6h-142" value="" style="rounded=0;whiteSpace=wrap;html=1;" vertex="1" parent="1">
          <mxGeometry x="900" y="260" width="80" height="20" as="geometry" />
        </mxCell>
        <mxCell id="8z2hfBNwsOLem4TLqW6h-169" value="" style="edgeStyle=orthogonalEdgeStyle;rounded=0;orthogonalLoop=1;jettySize=auto;html=1;entryX=0;entryY=0.75;entryDx=0;entryDy=0;endArrow=doubleBlock;endFill=1;" edge="1" parent="1" source="8z2hfBNwsOLem4TLqW6h-146" target="8z2hfBNwsOLem4TLqW6h-151">
          <mxGeometry relative="1" as="geometry">
            <mxPoint x="1105" y="245" as="targetPoint" />
            <Array as="points">
              <mxPoint x="1095" y="238" />
            </Array>
          </mxGeometry>
        </mxCell>
        <mxCell id="8z2hfBNwsOLem4TLqW6h-171" value="" style="edgeStyle=orthogonalEdgeStyle;rounded=0;orthogonalLoop=1;jettySize=auto;html=1;entryX=0;entryY=0.75;entryDx=0;entryDy=0;endArrow=doubleBlock;endFill=1;" edge="1" parent="1" source="8z2hfBNwsOLem4TLqW6h-146" target="8z2hfBNwsOLem4TLqW6h-157">
          <mxGeometry relative="1" as="geometry">
            <mxPoint x="1105" y="245" as="targetPoint" />
          </mxGeometry>
        </mxCell>
        <mxCell id="8z2hfBNwsOLem4TLqW6h-146" value="O" style="rounded=0;whiteSpace=wrap;html=1;" vertex="1" parent="1">
          <mxGeometry x="1040" y="230" width="30" height="30" as="geometry" />
        </mxCell>
        <mxCell id="8z2hfBNwsOLem4TLqW6h-147" value="" style="rounded=0;whiteSpace=wrap;html=1;" vertex="1" parent="1">
          <mxGeometry x="1030" y="230" width="10" height="30" as="geometry" />
        </mxCell>
        <mxCell id="8z2hfBNwsOLem4TLqW6h-174" value="" style="edgeStyle=orthogonalEdgeStyle;rounded=0;orthogonalLoop=1;jettySize=auto;html=1;endArrow=doubleBlock;endFill=1;" edge="1" parent="1" source="8z2hfBNwsOLem4TLqW6h-151" target="8z2hfBNwsOLem4TLqW6h-173">
          <mxGeometry relative="1" as="geometry">
            <Array as="points">
              <mxPoint x="1260" y="240" />
              <mxPoint x="1260" y="240" />
            </Array>
          </mxGeometry>
        </mxCell>
        <mxCell id="8z2hfBNwsOLem4TLqW6h-151" value="&#xa;&#xa;Провести&#xa;практическое&#xa;обучение&#xa;&#xa;" style="rounded=0;whiteSpace=wrap;html=1;" vertex="1" parent="1">
          <mxGeometry x="1119" y="200" width="120" height="50" as="geometry" />
        </mxCell>
        <mxCell id="8z2hfBNwsOLem4TLqW6h-152" value="4" style="rounded=0;whiteSpace=wrap;html=1;" vertex="1" parent="1">
          <mxGeometry x="1119" y="250" width="40" height="20" as="geometry" />
        </mxCell>
        <mxCell id="8z2hfBNwsOLem4TLqW6h-153" value="" style="rounded=0;whiteSpace=wrap;html=1;" vertex="1" parent="1">
          <mxGeometry x="1159" y="250" width="80" height="20" as="geometry" />
        </mxCell>
        <mxCell id="8z2hfBNwsOLem4TLqW6h-157" value="&#xa;&#xa;Организовать&#xa;изучение курса&#xa;&#xa;" style="rounded=0;whiteSpace=wrap;html=1;" vertex="1" parent="1">
          <mxGeometry x="1119" y="330" width="120" height="50" as="geometry" />
        </mxCell>
        <mxCell id="8z2hfBNwsOLem4TLqW6h-158" value="3.1" style="rounded=0;whiteSpace=wrap;html=1;" vertex="1" parent="1">
          <mxGeometry x="1119" y="380" width="40" height="20" as="geometry" />
        </mxCell>
        <mxCell id="8z2hfBNwsOLem4TLqW6h-159" value="" style="rounded=0;whiteSpace=wrap;html=1;" vertex="1" parent="1">
          <mxGeometry x="1159" y="380" width="80" height="20" as="geometry" />
        </mxCell>
        <mxCell id="8z2hfBNwsOLem4TLqW6h-183" value="" style="edgeStyle=orthogonalEdgeStyle;rounded=0;orthogonalLoop=1;jettySize=auto;html=1;entryX=0;entryY=0.5;entryDx=0;entryDy=0;endArrow=doubleBlock;endFill=1;" edge="1" parent="1" source="8z2hfBNwsOLem4TLqW6h-163" target="8z2hfBNwsOLem4TLqW6h-96">
          <mxGeometry relative="1" as="geometry">
            <mxPoint x="1319" y="105" as="targetPoint" />
            <Array as="points">
              <mxPoint x="1290" y="105" />
              <mxPoint x="1290" y="-90" />
              <mxPoint x="40" y="-90" />
              <mxPoint x="40" y="105" />
            </Array>
          </mxGeometry>
        </mxCell>
        <mxCell id="8z2hfBNwsOLem4TLqW6h-163" value="Скорректировать&lt;br&gt;дату обучения в&lt;br&gt;1С" style="rounded=0;whiteSpace=wrap;html=1;" vertex="1" parent="1">
          <mxGeometry x="1119" y="80" width="120" height="50" as="geometry" />
        </mxCell>
        <mxCell id="8z2hfBNwsOLem4TLqW6h-164" value="6.1" style="rounded=0;whiteSpace=wrap;html=1;" vertex="1" parent="1">
          <mxGeometry x="1119" y="130" width="40" height="20" as="geometry" />
        </mxCell>
        <mxCell id="8z2hfBNwsOLem4TLqW6h-165" value="" style="rounded=0;whiteSpace=wrap;html=1;" vertex="1" parent="1">
          <mxGeometry x="1159" y="130" width="80" height="20" as="geometry" />
        </mxCell>
        <mxCell id="8z2hfBNwsOLem4TLqW6h-178" value="" style="edgeStyle=orthogonalEdgeStyle;rounded=0;orthogonalLoop=1;jettySize=auto;html=1;endArrow=doubleBlock;endFill=1;" edge="1" parent="1" source="8z2hfBNwsOLem4TLqW6h-172" target="8z2hfBNwsOLem4TLqW6h-177">
          <mxGeometry relative="1" as="geometry">
            <Array as="points">
              <mxPoint x="1340" y="243" />
              <mxPoint x="1340" y="243" />
            </Array>
          </mxGeometry>
        </mxCell>
        <mxCell id="8z2hfBNwsOLem4TLqW6h-172" value="X" style="rounded=0;whiteSpace=wrap;html=1;" vertex="1" parent="1">
          <mxGeometry x="1300" y="220" width="30" height="30" as="geometry" />
        </mxCell>
        <mxCell id="8z2hfBNwsOLem4TLqW6h-173" value="" style="rounded=0;whiteSpace=wrap;html=1;" vertex="1" parent="1">
          <mxGeometry x="1290" y="220" width="10" height="30" as="geometry" />
        </mxCell>
        <mxCell id="8z2hfBNwsOLem4TLqW6h-180" value="" style="edgeStyle=orthogonalEdgeStyle;rounded=0;orthogonalLoop=1;jettySize=auto;html=1;entryX=0;entryY=0.25;entryDx=0;entryDy=0;endArrow=doubleBlock;endFill=1;" edge="1" parent="1" source="8z2hfBNwsOLem4TLqW6h-177" target="8z2hfBNwsOLem4TLqW6h-147">
          <mxGeometry relative="1" as="geometry">
            <mxPoint x="1565" y="242.5" as="targetPoint" />
            <Array as="points">
              <mxPoint x="1510" y="243" />
              <mxPoint x="1510" y="170" />
              <mxPoint x="1010" y="170" />
              <mxPoint x="1010" y="238" />
            </Array>
          </mxGeometry>
        </mxCell>
        <mxCell id="8z2hfBNwsOLem4TLqW6h-177" value="&#xa;&#xa;Оценить&#xa;готовность&#xa;стажера к&#xa;самостоятельной&#xa;работе&#xa;&#xa;" style="whiteSpace=wrap;html=1;rounded=0;" vertex="1" parent="1">
          <mxGeometry x="1365" y="205" width="120" height="75" as="geometry" />
        </mxCell>
      </root>
    </mxGraphModel>
  </diagram>
</mxfile>
